<?xml version="1.0" encoding="utf-8"?>
<!-- Generator: Adobe Illustrator 26.0.3, SVG Export Plug-In . SVG Version: 6.00 Build 0)  -->
<svg version="1.1" id="Ebene_1" xmlns="http://www.w3.org/2000/svg" xmlns:xlink="http://www.w3.org/1999/xlink" x="0px" y="0px"
	 viewBox="0 0 314 509.3" style="enable-background:new 0 0 314 509.3;" xml:space="preserve">
<style type="text/css">
	.st0{fill-rule:evenodd;clip-rule:evenodd;fill:#FDDA00;}
	.st1{fill-rule:evenodd;clip-rule:evenodd;fill:#FEFEFE;}
	.st2{opacity:0.3;fill-rule:evenodd;clip-rule:evenodd;fill:#88441E;enable-background:new    ;}
	.st3{fill-rule:evenodd;clip-rule:evenodd;fill:#2E2E30;}
</style>
<g transform="translate(112 1)">
	<polygon class="st0" points="44.5,497.8 135.3,497.8 177.5,120.2 44.5,120.2 -88.5,120.2 -46.3,497.8 	"/>
	<polygon class="st1" points="44.5,161.9 172.8,161.9 177.5,120.2 44.5,120.2 -88.5,120.2 -83.8,161.9 	"/>
	<polygon class="st1" points="-50.4,460.9 -46.3,497.8 44.5,497.8 135.3,497.8 139.4,460.9 44.5,460.9 	"/>
	<g transform="translate(0 .217)">
		<polygon class="st2" points="135.5,120 93.3,497.6 135.3,497.6 177.5,120 		"/>
		<path class="st3" d="M-36.9,487.2h162.7l39.9-356.8H-76.8L-36.9,487.2z M135.3,508.1H-46.3c-5.3,0-9.8-4-10.4-9.3l-42.2-377.7
			c-0.3-3,0.6-5.9,2.6-8.1s4.8-3.5,7.8-3.5h266c3,0,5.8,1.3,7.8,3.5s2.9,5.1,2.6,8.1l-42.2,377.7
			C145.1,504.1,140.6,508.1,135.3,508.1L135.3,508.1z"/>
		<path class="st1" d="M135.1,74.4c-1.9,0-3.7,0.3-5.6,0.6c0-0.2,0-0.4,0-0.6c0-21.2-17.3-38.4-38.7-38.4c-1.8,0-3.5,0.2-5.2,0.4
			c-7.6-15-23.1-25.3-41.2-25.3c-18,0-33.6,10.3-41.2,25.3C1.6,36.1-0.1,36-1.9,36c-21.4,0-38.7,17.2-38.7,38.4c0,0.2,0,0.4,0,0.6
			c-1.8-0.3-3.6-0.6-5.6-0.6c-19.5,0-35.4,15.7-35.4,35.1c0,3.7,0.6,7.2,1.7,10.5h38v56.1c0,10.9,8.9,19.7,19.8,19.7
			s19.8-8.8,19.8-19.7V120h170.9c1.1-3.3,1.7-6.8,1.7-10.5C170.5,90.1,154.7,74.4,135.1,74.4"/>
		<path class="st3" d="M-71,109.5h29.2c5.8,0,10.5,4.7,10.5,10.4V176c0,5.1,4.2,9.3,9.3,9.3s9.3-4.2,9.3-9.3v-56
			c0-5.8,4.7-10.4,10.5-10.4H160v-0.1c0-13.6-11.2-24.7-24.9-24.7c-1.3,0-2.6,0.2-3.9,0.4c-3,0.5-6.1-0.4-8.5-2.4
			c-2.3-2-3.7-4.9-3.7-7.9c0-0.3,0-0.8,0-1c0-14.9-12.7-27.5-28.2-27.5c-1.3,0-2.6,0.1-3.8,0.3c-4.4,0.6-8.8-1.7-10.8-5.7
			c-6-12-18.2-19.5-31.7-19.5S18.8,29,12.7,41c-2,4-6.4,6.2-10.8,5.7c-1.3-0.2-2.5-0.3-3.8-0.3c-15.5,0-28.2,12.6-28.2,28
			c0.1,3.1-1.2,6.2-3.5,8.3s-5.5,3.1-8.6,2.6c-1.3-0.2-2.6-0.4-3.9-0.4C-59.8,84.8-71,95.9-71,109.5L-71,109.5z M-22,206.2
			c-16.7,0-30.3-13.5-30.3-30.1v-45.7h-27.5c-4.6,0-8.6-2.9-10-7.3c-1.5-4.5-2.2-9.1-2.2-13.6c0-23.8,18.5-43.4,42-45.4
			c4.7-21.8,24.2-38.3,47.5-38.6C8,10,25.4,0.7,44.5,0.7s36.6,9.4,47,24.9c23.3,0.3,42.8,16.7,47.5,38.6c23.5,2,42,21.6,42,45.4
			c0,4.5-0.7,8.9-2.2,13.6c-1.4,4.3-5.4,7.3-10,7.3H8.3v45.7C8.3,192.7-5.3,206.2-22,206.2L-22,206.2z"/>
		<path class="st1" d="M-45.6,460.6h179.4"/>
		<path class="st3" d="M133.8,471.1H-45.6c-5.8,0-10.5-4.7-10.5-10.4c0-5.8,4.7-10.4,10.5-10.4h179.4c5.8,0,10.5,4.7,10.5,10.4
			C144.3,466.4,139.6,471.1,133.8,471.1"/>
	</g>
</g>
</svg>
